# xmcd CD database file generated by OrangeCD 5.2
#
# Track frame offsets:
#	150
#	22022
#	48330
#	73397
#	98260
#	126285
#	153242
#	171487
#	192327
#	212975
#	243790
#	257020
#	278237
#
# Disc length: 3944 seconds
#
# Revision: 0
# Processed by: cddbd v1.5.1PL0 Copyright (c) Steve Scherf et al.
# Submitted via: OrangeCD 5.2
#
DISCID=bb0f660d
DTITLE=Various Artist - Between The Sheets Volume 3
DYEAR=1997
DGENRE=Soul
TTITLE0=The Isley Brothers - Groove With Me
TTITLE1=The Intruders - I Wanna Know Your Name
TTITLE2=The O'Jays - You Got Your Hooks On Me
TTITLE3=Billy Paul - When Love Is New
TTITLE4=Teena Marie - Ooo La La La
TTITLE5=Stanley Clarke - Heaven Sent You
TTITLE6=Mtume - C.O.D. (I'll Deliver)
TTITLE7=Lil' Louis and The World - The Luv U Wanted
TTITLE8=MFSB - My One And Only Love
TTITLE9=The Isley Brothers - Sensuality    Part 1 and 2
TTITLE10=The O'Jays - You're The Best Thing Since Candy
TTITLE11=Nayobe - Have I Said I Love You Lately
TTITLE12=The Jacksons - Heaven Knows I Love You Girl
EXTD=
EXTT0=
EXTT1=
EXTT2=
EXTT3=
EXTT4=
EXTT5=
EXTT6=
EXTT7=
EXTT8=
EXTT9=
EXTT10=
EXTT11=
EXTT12=
PLAYORDER=
